<svg xmlns="http://www.w3.org/2000/svg" xmlns:xlink="http://www.w3.org/1999/xlink" width="500" zoomAndPan="magnify" viewBox="0 0 375 374.999991" height="500" preserveAspectRatio="xMidYMid meet" version="1.0"><defs><g/><clipPath id="b77dd21ccf"><path d="M 57 246 L 68 246 L 68 253.664062 L 57 253.664062 Z M 57 246 " clip-rule="nonzero"/></clipPath><clipPath id="56f800a95a"><path d="M 68 246 L 80 246 L 80 253.664062 L 68 253.664062 Z M 68 246 " clip-rule="nonzero"/></clipPath><clipPath id="93d4d81cc8"><path d="M 32.222656 135 L 44 135 L 44 149 L 32.222656 149 Z M 32.222656 135 " clip-rule="nonzero"/></clipPath><clipPath id="b6469a19bb"><path d="M 79.570312 127.078125 L 91.015625 127.078125 L 91.015625 139.375 L 79.570312 139.375 Z M 79.570312 127.078125 " clip-rule="nonzero"/></clipPath><clipPath id="83428eac5f"><path d="M 85.203125 133.0625 L 91.015625 133.0625 L 91.015625 139.375 L 85.203125 139.375 Z M 85.203125 133.0625 " clip-rule="nonzero"/></clipPath><clipPath id="a799f0517b"><path d="M 81.085938 127.621094 L 91.015625 127.621094 L 91.015625 139.375 L 81.085938 139.375 Z M 81.085938 127.621094 " clip-rule="nonzero"/></clipPath><clipPath id="158611f8cf"><path d="M 85.203125 133.0625 L 91.015625 133.0625 L 91.015625 139.375 L 85.203125 139.375 Z M 85.203125 133.0625 " clip-rule="nonzero"/></clipPath><clipPath id="a51095821b"><path d="M 80.871094 133 L 91.015625 133 L 91.015625 139.375 L 80.871094 139.375 Z M 80.871094 133 " clip-rule="nonzero"/></clipPath><clipPath id="30f8875493"><path d="M 85.203125 133.171875 L 91.015625 133.171875 L 91.015625 139.375 L 85.203125 139.375 Z M 85.203125 133.171875 " clip-rule="nonzero"/></clipPath><clipPath id="ad3a5beaa9"><path d="M 80.871094 128 L 91.015625 128 L 91.015625 139.375 L 80.871094 139.375 Z M 80.871094 128 " clip-rule="nonzero"/></clipPath><clipPath id="768ca89f37"><path d="M 49 90.164062 L 88 90.164062 L 88 107 L 49 107 Z M 49 90.164062 " clip-rule="nonzero"/></clipPath></defs><rect x="-37.5" width="450" fill="#ffffff" y="-37.499999" height="449.999989" fill-opacity="1"/><rect x="-37.5" width="450" fill="#ffffff" y="-37.499999" height="449.999989" fill-opacity="1"/><rect x="-37.5" width="450" fill="#ffffff" y="-37.499999" height="449.999989" fill-opacity="1"/><path fill="#cd6091" d="M 76.140625 183.859375 L 55.582031 183.859375 L 59.371094 249.5625 L 67.632812 249.5625 L 67.632812 197.824219 L 69.1875 197.824219 L 69.1875 249.5625 L 77.449219 249.5625 L 81.238281 183.859375 L 76.140625 183.859375 " fill-opacity="1" fill-rule="nonzero"/><path fill="#ac567e" d="M 61.203125 249.5625 L 59.371094 249.5625 L 56.089844 192.691406 L 57.921875 192.691406 L 61.203125 249.5625 M 55.605469 184.320312 L 55.582031 183.859375 L 55.652344 183.859375 C 55.636719 184.015625 55.621094 184.167969 55.605469 184.320312 " fill-opacity="1" fill-rule="nonzero"/><path fill="#ac567e" d="M 77.4375 249.5625 L 75.605469 249.5625 L 78.886719 192.691406 L 80.71875 192.691406 L 77.4375 249.5625 " fill-opacity="1" fill-rule="nonzero"/><g clip-path="url(#b77dd21ccf)"><path fill="#e8e7e7" d="M 67.871094 249.84375 C 67.867188 249.824219 67.863281 249.804688 67.859375 249.785156 C 67.84375 249.695312 67.824219 249.601562 67.796875 249.511719 C 67.785156 249.484375 67.773438 249.453125 67.761719 249.421875 C 67.742188 249.363281 67.722656 249.308594 67.695312 249.257812 C 67.070312 247.832031 65.023438 246.789062 62.582031 246.789062 C 60.144531 246.789062 58.09375 247.832031 57.46875 249.257812 C 57.445312 249.308594 57.421875 249.363281 57.402344 249.421875 C 57.390625 249.453125 57.378906 249.484375 57.371094 249.511719 C 57.34375 249.601562 57.320312 249.695312 57.304688 249.785156 C 57.300781 249.804688 57.296875 249.824219 57.292969 249.84375 C 57.28125 249.945312 57.269531 250.046875 57.269531 250.152344 L 57.269531 251.257812 C 57.269531 252.511719 58.375 253.535156 59.722656 253.535156 L 65.441406 253.535156 C 66.792969 253.535156 67.894531 252.511719 67.894531 251.257812 L 67.894531 250.152344 C 67.894531 250.046875 67.886719 249.945312 67.871094 249.84375 " fill-opacity="1" fill-rule="nonzero"/></g><g clip-path="url(#56f800a95a)"><path fill="#e8e7e7" d="M 79.539062 249.84375 C 79.539062 249.824219 79.535156 249.804688 79.53125 249.785156 C 79.515625 249.695312 79.492188 249.601562 79.464844 249.511719 C 79.457031 249.484375 79.445312 249.453125 79.433594 249.421875 C 79.414062 249.363281 79.390625 249.308594 79.367188 249.257812 C 78.742188 247.832031 76.691406 246.789062 74.253906 246.789062 C 71.8125 246.789062 69.761719 247.832031 69.140625 249.257812 C 69.113281 249.308594 69.09375 249.363281 69.074219 249.421875 C 69.0625 249.453125 69.050781 249.484375 69.039062 249.511719 C 69.011719 249.601562 68.992188 249.695312 68.972656 249.785156 C 68.972656 249.804688 68.96875 249.824219 68.964844 249.84375 C 68.949219 249.945312 68.941406 250.046875 68.941406 250.152344 L 68.941406 251.257812 C 68.941406 252.511719 70.042969 253.535156 71.390625 253.535156 L 77.113281 253.535156 C 78.460938 253.535156 79.566406 252.511719 79.566406 251.257812 L 79.566406 250.152344 C 79.566406 250.046875 79.554688 249.945312 79.539062 249.84375 " fill-opacity="1" fill-rule="nonzero"/></g><path fill="#e7ae9c" d="M 79.835938 147.160156 C 79.835938 147.160156 85.078125 150.804688 85.582031 168.210938 C 85.582031 168.210938 85.386719 180.320312 81.511719 183.769531 C 81.511719 183.769531 78.433594 169.339844 79.835938 147.160156 " fill-opacity="1" fill-rule="nonzero"/><path fill="#dba295" d="M 65.714844 144.574219 L 71.28125 144.574219 L 71.28125 142.148438 L 65.714844 142.148438 Z M 65.714844 144.574219 " fill-opacity="1" fill-rule="nonzero"/><path fill="#c29289" d="M 65.714844 142.917969 L 65.714844 142.328125 L 65.765625 142.328125 C 66.34375 142.414062 66.9375 142.488281 67.550781 142.554688 C 67.574219 142.558594 67.597656 142.558594 67.625 142.5625 C 67.648438 142.566406 67.675781 142.566406 67.699219 142.566406 C 67.703125 142.566406 67.703125 142.566406 67.703125 142.566406 C 67.742188 142.566406 67.78125 142.566406 67.820312 142.5625 C 67.832031 142.558594 67.84375 142.558594 67.855469 142.558594 C 67.875 142.558594 67.890625 142.554688 67.910156 142.554688 C 67.925781 142.554688 67.941406 142.554688 67.957031 142.554688 C 68.0625 142.554688 68.167969 142.5625 68.269531 142.5625 L 68.292969 142.5625 C 68.398438 142.5625 68.5 142.554688 68.605469 142.554688 C 68.691406 142.554688 68.777344 142.566406 68.863281 142.566406 C 68.890625 142.566406 68.914062 142.566406 68.941406 142.5625 C 69.582031 142.496094 70.199219 142.417969 70.796875 142.328125 L 71.28125 142.328125 L 71.28125 142.429688 C 71.28125 142.429688 69.785156 142.917969 65.714844 142.917969 " fill-opacity="1" fill-rule="nonzero"/><path fill="#dba295" d="M 71.09375 144.027344 L 65.714844 144.027344 L 61.835938 144.773438 C 61.835938 144.773438 62.582031 151.371094 68.402344 151.371094 C 74.222656 151.371094 74.972656 144.773438 74.972656 144.773438 L 71.09375 144.027344 " fill-opacity="1" fill-rule="nonzero"/><path fill="#e7ae9c" d="M 58.257812 148.699219 C 58.394531 150.363281 58.519531 153.292969 58.253906 157.167969 C 58.25 157.269531 58.207031 157.367188 58.132812 157.4375 C 57.402344 158.175781 53.296875 162.320312 53.070312 162.546875 L 53.050781 162.566406 C 51.679688 163.808594 49.761719 164.429688 48.25 163.265625 C 45.324219 161.011719 41.757812 156.253906 39.148438 147.820312 C 39.082031 147.601562 39.199219 147.371094 39.417969 147.296875 L 42.363281 146.273438 C 42.558594 146.207031 42.773438 146.289062 42.871094 146.46875 C 43.574219 147.753906 46.394531 152.671875 49.921875 155.441406 C 49.921875 155.441406 53.472656 153.015625 57.589844 148.472656 C 57.816406 148.21875 58.230469 148.359375 58.257812 148.699219 " fill-opacity="1" fill-rule="nonzero"/><g clip-path="url(#93d4d81cc8)"><path fill="#e7ae9c" d="M 37.628906 135.734375 L 42.84375 141.644531 C 42.84375 141.644531 45.140625 144.4375 41.429688 147.546875 C 41.429688 147.546875 39.097656 149.621094 37.160156 147.304688 C 37.160156 147.304688 34.671875 144.828125 33.242188 142.320312 C 33.242188 142.320312 32.214844 140.683594 33.574219 140.335938 L 33.222656 139.640625 C 33.222656 139.640625 32.355469 137.882812 34.109375 137.503906 L 33.824219 137.078125 C 33.824219 137.078125 33.355469 136.097656 34.167969 135.554688 C 34.167969 135.554688 35.03125 134.925781 35.882812 135.929688 C 35.882812 135.929688 35.988281 135.5625 36.257812 135.363281 C 36.5625 135.140625 37.0625 135.113281 37.628906 135.734375 " fill-opacity="1" fill-rule="nonzero"/></g><path fill="#e7ae9c" d="M 40.9375 139.175781 C 40.875 138.726562 40.988281 138.445312 41.082031 138.222656 C 41.261719 137.796875 41.933594 137.195312 42.398438 137.617188 C 42.519531 137.726562 42.582031 137.882812 42.597656 138.046875 C 42.710938 139.136719 43.03125 140.242188 43.523438 141.226562 C 43.523438 141.226562 44.195312 142.910156 43.402344 144.601562 C 43.402344 144.601562 41.496094 144.421875 40.9375 139.175781 " fill-opacity="1" fill-rule="nonzero"/><path fill="#d3a191" d="M 37.433594 142.402344 L 34.109375 137.503906 L 37.765625 142.09375 L 37.433594 142.402344 " fill-opacity="1" fill-rule="nonzero"/><path fill="#e8e7e7" d="M 35.882812 135.929688 C 35.859375 135.898438 35.835938 135.871094 35.808594 135.84375 L 35.753906 135.765625 L 35.886719 135.925781 C 35.882812 135.925781 35.882812 135.929688 35.882812 135.929688 " fill-opacity="1" fill-rule="nonzero"/><path fill="#d3a191" d="M 39.363281 140.808594 L 35.808594 135.84375 C 35.835938 135.871094 35.859375 135.898438 35.882812 135.929688 C 35.882812 135.929688 35.882812 135.925781 35.886719 135.925781 L 39.710938 140.539062 L 39.363281 140.808594 " fill-opacity="1" fill-rule="nonzero"/><path fill="#d3a191" d="M 35.894531 143.523438 L 33.574219 140.335938 L 36.105469 143.339844 L 35.894531 143.523438 " fill-opacity="1" fill-rule="nonzero"/><g clip-path="url(#b6469a19bb)"><path fill="#6f4725" d="M 91.015625 133.203125 C 91.015625 136.558594 88.457031 139.28125 85.296875 139.28125 C 82.136719 139.28125 79.578125 136.558594 79.578125 133.203125 C 79.578125 129.84375 82.136719 127.121094 85.296875 127.121094 C 88.457031 127.121094 91.015625 129.84375 91.015625 133.203125 " fill-opacity="1" fill-rule="nonzero"/></g><g clip-path="url(#83428eac5f)"><path fill="#e0dfdf" d="M 85.285156 139.28125 C 85.285156 139.28125 85.28125 139.28125 85.28125 139.28125 C 85.285156 139.28125 85.285156 139.28125 85.285156 139.28125 M 85.273438 139.28125 C 85.273438 139.28125 85.269531 139.28125 85.269531 139.28125 C 85.269531 139.28125 85.273438 139.28125 85.273438 139.28125 M 85.257812 139.28125 L 85.257812 139.28125 M 85.246094 139.28125 L 85.246094 139.28125 M 85.21875 139.28125 L 85.21875 139.28125 M 85.207031 139.28125 L 85.207031 139.28125 M 91.015625 133.1875 L 91.015625 133.1875 M 91.015625 133.175781 C 91.015625 133.171875 91.015625 133.171875 91.015625 133.171875 C 91.015625 133.171875 91.015625 133.171875 91.015625 133.175781 M 91.015625 133.160156 C 91.015625 133.160156 91.015625 133.15625 91.015625 133.15625 C 91.015625 133.15625 91.015625 133.160156 91.015625 133.160156 M 91.015625 133.144531 L 91.015625 133.144531 M 91.015625 133.128906 L 91.015625 133.128906 M 91.015625 133.101562 L 91.015625 133.101562 " fill-opacity="1" fill-rule="nonzero"/></g><g clip-path="url(#a799f0517b)"><path fill="#634022" d="M 85.28125 139.28125 L 85.28125 139.28125 M 85.273438 139.28125 C 85.273438 139.28125 85.269531 139.28125 85.269531 139.28125 C 85.269531 139.28125 85.269531 139.28125 85.265625 139.28125 C 85.269531 139.28125 85.269531 139.28125 85.273438 139.28125 M 85.261719 139.28125 C 85.261719 139.28125 85.257812 139.28125 85.257812 139.28125 C 85.257812 139.28125 85.253906 139.28125 85.253906 139.28125 C 85.257812 139.28125 85.257812 139.28125 85.261719 139.28125 M 85.25 139.28125 C 85.246094 139.28125 85.246094 139.28125 85.246094 139.28125 C 85.242188 139.28125 85.242188 139.28125 85.242188 139.28125 C 85.246094 139.28125 85.246094 139.28125 85.25 139.28125 M 85.234375 139.28125 C 85.234375 139.28125 85.230469 139.28125 85.230469 139.28125 C 85.230469 139.28125 85.234375 139.28125 85.234375 139.28125 M 85.222656 139.28125 C 85.222656 139.28125 85.222656 139.28125 85.21875 139.28125 C 85.21875 139.28125 85.222656 139.28125 85.222656 139.28125 M 85.210938 139.28125 C 85.210938 139.28125 85.207031 139.28125 85.207031 139.28125 C 85.207031 139.28125 85.210938 139.28125 85.210938 139.28125 M 85.195312 139.28125 C 85.191406 139.28125 85.191406 139.28125 85.1875 139.28125 C 85.191406 139.28125 85.191406 139.28125 85.195312 139.28125 M 85.183594 139.28125 C 85.179688 139.28125 85.179688 139.28125 85.175781 139.28125 C 85.179688 139.28125 85.179688 139.28125 85.183594 139.28125 M 85.171875 139.28125 C 85.167969 139.28125 85.164062 139.28125 85.164062 139.28125 C 85.164062 139.28125 85.167969 139.28125 85.171875 139.28125 M 85.160156 139.28125 C 85.15625 139.28125 85.152344 139.28125 85.152344 139.28125 C 85.152344 139.28125 85.15625 139.28125 85.160156 139.28125 M 85.148438 139.28125 C 85.144531 139.28125 85.140625 139.28125 85.140625 139.28125 C 85.140625 139.28125 85.144531 139.28125 85.148438 139.28125 M 85.136719 139.28125 C 85.132812 139.28125 85.128906 139.28125 85.128906 139.28125 C 85.128906 139.28125 85.132812 139.28125 85.136719 139.28125 M 85.125 139.28125 C 85.109375 139.277344 85.097656 139.277344 85.082031 139.277344 C 85.097656 139.277344 85.109375 139.277344 85.125 139.28125 M 85.082031 139.277344 C 85.078125 139.277344 85.074219 139.277344 85.070312 139.277344 C 85.074219 139.277344 85.078125 139.277344 85.082031 139.277344 M 85.070312 139.277344 C 85.066406 139.277344 85.0625 139.277344 85.058594 139.277344 C 85.0625 139.277344 85.066406 139.277344 85.070312 139.277344 M 85.058594 139.277344 C 85.054688 139.277344 85.050781 139.277344 85.046875 139.277344 C 85.050781 139.277344 85.054688 139.277344 85.058594 139.277344 M 85.046875 139.277344 C 83.511719 139.207031 82.132812 138.492188 81.144531 137.378906 C 82.132812 138.492188 83.511719 139.207031 85.046875 139.277344 M 83.609375 137.589844 C 82.722656 137.589844 81.886719 137.367188 81.140625 136.984375 C 81.292969 136.8125 81.441406 136.636719 81.585938 136.453125 C 81.90625 136.515625 82.234375 136.546875 82.574219 136.546875 C 85.730469 136.546875 88.292969 133.824219 88.292969 130.464844 C 88.292969 129.453125 88.054688 128.5 87.644531 127.660156 C 89.582031 128.589844 90.949219 130.632812 91.015625 133.023438 C 90.957031 130.914062 89.882812 129.078125 88.300781 128.035156 C 88.945312 129.019531 89.328125 130.214844 89.328125 131.507812 C 89.328125 134.867188 86.769531 137.589844 83.609375 137.589844 M 81.144531 137.378906 C 81.144531 137.375 81.140625 137.375 81.140625 137.375 C 81.140625 137.375 81.144531 137.375 81.144531 137.378906 M 91.015625 133.1875 C 91.015625 133.1875 91.015625 133.183594 91.015625 133.183594 C 91.015625 133.183594 91.015625 133.183594 91.015625 133.1875 M 91.015625 133.175781 C 91.015625 133.171875 91.015625 133.171875 91.015625 133.167969 C 91.015625 133.167969 91.015625 133.171875 91.015625 133.171875 C 91.015625 133.171875 91.015625 133.171875 91.015625 133.175781 M 91.015625 133.160156 C 91.015625 133.160156 91.015625 133.15625 91.015625 133.152344 C 91.015625 133.15625 91.015625 133.15625 91.015625 133.15625 C 91.015625 133.15625 91.015625 133.160156 91.015625 133.160156 M 91.015625 133.148438 C 91.015625 133.144531 91.015625 133.140625 91.015625 133.140625 C 91.015625 133.140625 91.015625 133.140625 91.015625 133.144531 C 91.015625 133.144531 91.015625 133.148438 91.015625 133.148438 M 91.015625 133.132812 C 91.015625 133.132812 91.015625 133.128906 91.015625 133.128906 C 91.015625 133.132812 91.015625 133.132812 91.015625 133.132812 M 91.015625 133.121094 C 91.015625 133.117188 91.015625 133.113281 91.015625 133.113281 C 91.015625 133.113281 91.015625 133.117188 91.015625 133.121094 M 91.015625 133.105469 C 91.015625 133.105469 91.015625 133.101562 91.015625 133.097656 C 91.015625 133.101562 91.015625 133.101562 91.015625 133.101562 C 91.015625 133.101562 91.015625 133.105469 91.015625 133.105469 M 91.015625 133.097656 C 91.015625 133.085938 91.015625 133.074219 91.015625 133.0625 C 91.015625 133.074219 91.015625 133.085938 91.015625 133.097656 M 91.015625 133.0625 C 91.015625 133.058594 91.015625 133.054688 91.015625 133.050781 C 91.015625 133.054688 91.015625 133.058594 91.015625 133.0625 M 91.015625 133.046875 C 91.015625 133.042969 91.015625 133.039062 91.015625 133.035156 C 91.015625 133.039062 91.015625 133.042969 91.015625 133.046875 M 91.015625 133.035156 C 91.015625 133.03125 91.015625 133.027344 91.015625 133.023438 C 91.015625 133.027344 91.015625 133.03125 91.015625 133.035156 " fill-opacity="1" fill-rule="nonzero"/></g><g clip-path="url(#158611f8cf)"><path fill="#c2c3c4" d="M 85.285156 139.28125 L 85.285156 139.28125 M 85.277344 139.28125 C 85.273438 139.28125 85.273438 139.28125 85.273438 139.28125 C 85.273438 139.28125 85.273438 139.28125 85.277344 139.28125 M 85.265625 139.28125 C 85.261719 139.28125 85.261719 139.28125 85.261719 139.28125 C 85.261719 139.28125 85.261719 139.28125 85.265625 139.28125 M 85.253906 139.28125 C 85.253906 139.28125 85.25 139.28125 85.25 139.28125 C 85.25 139.28125 85.25 139.28125 85.253906 139.28125 M 85.242188 139.28125 C 85.238281 139.28125 85.238281 139.28125 85.238281 139.28125 C 85.238281 139.28125 85.238281 139.28125 85.242188 139.28125 M 85.230469 139.28125 C 85.230469 139.28125 85.230469 139.28125 85.226562 139.28125 C 85.230469 139.28125 85.230469 139.28125 85.230469 139.28125 M 85.21875 139.28125 L 85.21875 139.28125 M 91.015625 133.191406 C 91.015625 133.1875 91.015625 133.1875 91.015625 133.1875 C 91.015625 133.1875 91.015625 133.1875 91.015625 133.191406 M 91.015625 133.179688 C 91.015625 133.175781 91.015625 133.175781 91.015625 133.175781 C 91.015625 133.175781 91.015625 133.175781 91.015625 133.179688 M 91.015625 133.152344 C 91.015625 133.148438 91.015625 133.148438 91.015625 133.148438 C 91.015625 133.148438 91.015625 133.148438 91.015625 133.152344 M 91.015625 133.136719 L 91.015625 133.136719 " fill-opacity="1" fill-rule="nonzero"/></g><g clip-path="url(#a51095821b)"><path fill="#573920" d="M 85.296875 139.28125 C 85.292969 139.28125 85.289062 139.28125 85.285156 139.28125 C 85.289062 139.28125 85.292969 139.28125 85.296875 139.28125 M 85.28125 139.28125 C 85.277344 139.28125 85.277344 139.28125 85.277344 139.28125 C 85.273438 139.28125 85.273438 139.28125 85.273438 139.28125 C 85.277344 139.28125 85.277344 139.28125 85.28125 139.28125 M 85.265625 139.28125 C 85.261719 139.28125 85.261719 139.28125 85.261719 139.28125 C 85.261719 139.28125 85.265625 139.28125 85.265625 139.28125 M 85.253906 139.28125 C 85.25 139.28125 85.25 139.28125 85.25 139.28125 C 85.25 139.28125 85.253906 139.28125 85.253906 139.28125 M 85.242188 139.28125 C 85.238281 139.28125 85.238281 139.28125 85.238281 139.28125 C 85.238281 139.28125 85.238281 139.28125 85.234375 139.28125 C 85.238281 139.28125 85.242188 139.28125 85.242188 139.28125 M 85.230469 139.28125 C 85.230469 139.28125 85.230469 139.28125 85.226562 139.28125 C 85.226562 139.28125 85.226562 139.28125 85.222656 139.28125 C 85.226562 139.28125 85.226562 139.28125 85.230469 139.28125 M 85.21875 139.28125 C 85.214844 139.28125 85.210938 139.28125 85.210938 139.28125 C 85.214844 139.28125 85.214844 139.28125 85.21875 139.28125 M 85.207031 139.28125 C 85.203125 139.28125 85.199219 139.28125 85.195312 139.28125 C 85.199219 139.28125 85.203125 139.28125 85.207031 139.28125 M 85.1875 139.28125 C 85.1875 139.28125 85.183594 139.28125 85.183594 139.28125 C 85.183594 139.28125 85.1875 139.28125 85.1875 139.28125 M 85.175781 139.28125 C 85.175781 139.28125 85.171875 139.28125 85.171875 139.28125 C 85.171875 139.28125 85.175781 139.28125 85.175781 139.28125 M 85.164062 139.28125 C 85.160156 139.28125 85.160156 139.28125 85.160156 139.28125 C 85.160156 139.28125 85.160156 139.28125 85.164062 139.28125 M 85.152344 139.28125 C 85.148438 139.28125 85.148438 139.28125 85.148438 139.28125 C 85.148438 139.28125 85.148438 139.28125 85.152344 139.28125 M 85.140625 139.28125 C 85.136719 139.28125 85.136719 139.28125 85.136719 139.28125 C 85.136719 139.28125 85.136719 139.28125 85.140625 139.28125 M 85.128906 139.28125 C 85.125 139.28125 85.125 139.28125 85.125 139.28125 C 85.125 139.28125 85.125 139.28125 85.128906 139.28125 M 85.082031 139.277344 L 85.082031 139.277344 M 85.070312 139.277344 L 85.070312 139.277344 M 85.058594 139.277344 L 85.058594 139.277344 M 85.046875 139.277344 L 85.046875 139.277344 M 81.144531 137.378906 L 81.144531 137.378906 M 81.140625 137.375 C 81.082031 137.308594 81.027344 137.242188 80.972656 137.175781 C 81.027344 137.242188 81.082031 137.308594 81.140625 137.375 M 91.015625 133.203125 C 91.015625 133.195312 91.015625 133.191406 91.015625 133.1875 C 91.015625 133.1875 91.015625 133.1875 91.015625 133.191406 C 91.015625 133.195312 91.015625 133.199219 91.015625 133.203125 M 91.015625 133.183594 C 91.015625 133.179688 91.015625 133.175781 91.015625 133.175781 C 91.015625 133.175781 91.015625 133.175781 91.015625 133.179688 C 91.015625 133.179688 91.015625 133.179688 91.015625 133.183594 M 91.015625 133.167969 C 91.015625 133.167969 91.015625 133.164062 91.015625 133.160156 C 91.015625 133.160156 91.015625 133.160156 91.015625 133.164062 C 91.015625 133.164062 91.015625 133.167969 91.015625 133.167969 M 91.015625 133.152344 C 91.015625 133.152344 91.015625 133.148438 91.015625 133.148438 C 91.015625 133.148438 91.015625 133.148438 91.015625 133.152344 M 91.015625 133.140625 C 91.015625 133.136719 91.015625 133.136719 91.015625 133.132812 C 91.015625 133.132812 91.015625 133.136719 91.015625 133.136719 C 91.015625 133.140625 91.015625 133.140625 91.015625 133.140625 M 91.015625 133.128906 C 91.015625 133.125 91.015625 133.121094 91.015625 133.121094 C 91.015625 133.121094 91.015625 133.125 91.015625 133.128906 M 91.015625 133.113281 C 91.015625 133.109375 91.015625 133.109375 91.015625 133.105469 C 91.015625 133.109375 91.015625 133.109375 91.015625 133.113281 M 91.015625 133.097656 L 91.015625 133.097656 M 91.015625 133.0625 L 91.015625 133.0625 M 91.015625 133.050781 C 91.015625 133.046875 91.015625 133.046875 91.015625 133.046875 C 91.015625 133.046875 91.015625 133.046875 91.015625 133.050781 M 91.015625 133.035156 L 91.015625 133.035156 " fill-opacity="1" fill-rule="nonzero"/></g><g clip-path="url(#30f8875493)"><path fill="#adaeb0" d="M 85.285156 139.28125 C 85.285156 139.28125 85.285156 139.28125 85.28125 139.28125 C 85.285156 139.28125 85.285156 139.28125 85.285156 139.28125 M 85.273438 139.28125 L 85.273438 139.28125 M 91.015625 133.1875 L 91.015625 133.1875 " fill-opacity="1" fill-rule="nonzero"/></g><g clip-path="url(#ad3a5beaa9)"><path fill="#4e341d" d="M 85.296875 139.28125 C 85.292969 139.28125 85.289062 139.28125 85.285156 139.28125 C 85.285156 139.28125 85.285156 139.28125 85.28125 139.28125 C 85.277344 139.28125 85.277344 139.28125 85.273438 139.28125 C 85.269531 139.28125 85.269531 139.28125 85.265625 139.28125 C 85.265625 139.28125 85.261719 139.28125 85.261719 139.28125 C 85.257812 139.28125 85.257812 139.28125 85.253906 139.28125 C 85.253906 139.28125 85.25 139.28125 85.25 139.28125 C 85.246094 139.28125 85.246094 139.28125 85.242188 139.28125 C 85.242188 139.28125 85.238281 139.28125 85.234375 139.28125 C 85.234375 139.28125 85.230469 139.28125 85.230469 139.28125 C 85.226562 139.28125 85.226562 139.28125 85.222656 139.28125 C 85.222656 139.28125 85.21875 139.28125 85.21875 139.28125 C 85.214844 139.28125 85.214844 139.28125 85.210938 139.28125 C 85.210938 139.28125 85.207031 139.28125 85.207031 139.28125 C 85.203125 139.28125 85.199219 139.28125 85.195312 139.28125 C 85.191406 139.28125 85.191406 139.28125 85.1875 139.28125 C 85.1875 139.28125 85.183594 139.28125 85.183594 139.28125 C 85.179688 139.28125 85.179688 139.28125 85.175781 139.28125 C 85.175781 139.28125 85.171875 139.28125 85.171875 139.28125 C 85.167969 139.28125 85.164062 139.28125 85.164062 139.28125 C 85.160156 139.28125 85.160156 139.28125 85.160156 139.28125 C 85.15625 139.28125 85.152344 139.28125 85.152344 139.28125 C 85.148438 139.28125 85.148438 139.28125 85.148438 139.28125 C 85.144531 139.28125 85.140625 139.28125 85.140625 139.28125 C 85.136719 139.28125 85.136719 139.28125 85.136719 139.28125 C 85.132812 139.28125 85.128906 139.28125 85.128906 139.28125 C 85.125 139.28125 85.125 139.28125 85.125 139.28125 C 85.109375 139.277344 85.097656 139.277344 85.082031 139.277344 C 85.078125 139.277344 85.074219 139.277344 85.070312 139.277344 C 85.066406 139.277344 85.0625 139.277344 85.058594 139.277344 C 85.054688 139.277344 85.050781 139.277344 85.046875 139.277344 C 83.511719 139.207031 82.132812 138.492188 81.144531 137.378906 C 81.144531 137.375 81.140625 137.375 81.140625 137.375 C 81.082031 137.308594 81.027344 137.242188 80.972656 137.175781 C 81.027344 137.113281 81.082031 137.050781 81.140625 136.984375 C 81.886719 137.367188 82.722656 137.589844 83.609375 137.589844 C 86.769531 137.589844 89.328125 134.867188 89.328125 131.507812 C 89.328125 130.214844 88.945312 129.019531 88.300781 128.035156 C 89.882812 129.078125 90.957031 130.914062 91.015625 133.023438 C 91.015625 133.027344 91.015625 133.03125 91.015625 133.035156 C 91.015625 133.039062 91.015625 133.042969 91.015625 133.046875 C 91.015625 133.046875 91.015625 133.046875 91.015625 133.050781 C 91.015625 133.054688 91.015625 133.058594 91.015625 133.0625 C 91.015625 133.074219 91.015625 133.085938 91.015625 133.097656 C 91.015625 133.101562 91.015625 133.105469 91.015625 133.105469 C 91.015625 133.109375 91.015625 133.109375 91.015625 133.113281 C 91.015625 133.113281 91.015625 133.117188 91.015625 133.121094 C 91.015625 133.121094 91.015625 133.125 91.015625 133.128906 C 91.015625 133.128906 91.015625 133.132812 91.015625 133.132812 C 91.015625 133.136719 91.015625 133.136719 91.015625 133.140625 C 91.015625 133.140625 91.015625 133.144531 91.015625 133.148438 C 91.015625 133.148438 91.015625 133.152344 91.015625 133.152344 C 91.015625 133.15625 91.015625 133.160156 91.015625 133.160156 C 91.015625 133.164062 91.015625 133.167969 91.015625 133.167969 C 91.015625 133.171875 91.015625 133.171875 91.015625 133.175781 C 91.015625 133.175781 91.015625 133.179688 91.015625 133.183594 C 91.015625 133.183594 91.015625 133.1875 91.015625 133.1875 C 91.015625 133.191406 91.015625 133.195312 91.015625 133.203125 C 91.015625 136.558594 88.457031 139.28125 85.296875 139.28125 " fill-opacity="1" fill-rule="nonzero"/></g><path fill="#6f4725" d="M 86.304688 129.582031 C 96.714844 108.222656 81.796875 99.363281 81.796875 99.363281 C 74.804688 95.136719 68.347656 98.054688 68.347656 98.054688 C 68.347656 98.054688 61.890625 95.136719 54.898438 99.363281 C 54.898438 99.363281 39.980469 108.222656 50.386719 129.582031 L 86.304688 129.582031 " fill-opacity="1" fill-rule="nonzero"/><path fill="#e7ae9c" d="M 54.265625 127.335938 C 53.753906 126.433594 52.492188 126.160156 51.527344 126.273438 C 50.082031 126.445312 49.390625 127.824219 49.371094 129.164062 C 49.34375 131.257812 50.515625 133.671875 52.488281 134.550781 C 53.511719 135.007812 54.726562 134.449219 55.128906 133.417969 C 55.390625 132.738281 55.148438 131.960938 55.023438 131.265625 C 54.894531 130.5625 54.78125 129.867188 54.710938 129.15625 C 54.648438 128.539062 54.578125 127.882812 54.265625 127.335938 " fill-opacity="1" fill-rule="nonzero"/><path fill="#e7ae9c" d="M 81.972656 127.335938 C 82.484375 126.433594 83.746094 126.160156 84.710938 126.273438 C 86.15625 126.445312 86.847656 127.824219 86.867188 129.164062 C 86.894531 131.257812 85.722656 133.671875 83.75 134.550781 C 82.726562 135.007812 81.511719 134.449219 81.109375 133.417969 C 80.847656 132.738281 81.089844 131.960938 81.214844 131.265625 C 81.34375 130.5625 81.457031 129.867188 81.527344 129.15625 C 81.589844 128.539062 81.65625 127.882812 81.972656 127.335938 " fill-opacity="1" fill-rule="nonzero"/><path fill="#e7ae9c" d="M 68.941406 102.433594 C 68.828125 102.433594 68.71875 102.441406 68.605469 102.445312 C 68.5 102.441406 68.398438 102.433594 68.292969 102.433594 L 68.269531 102.433594 C 68.167969 102.433594 68.0625 102.441406 67.957031 102.445312 C 67.847656 102.441406 67.734375 102.433594 67.625 102.433594 C 58.617188 102.433594 51.320312 111.488281 51.320312 122.65625 C 51.320312 122.65625 51.351562 125.4375 52.070312 126.886719 C 52.578125 127.917969 52.820312 129.097656 52.992188 130.226562 C 53.167969 131.382812 52.988281 132.675781 53.40625 133.769531 C 54.074219 135.503906 55.363281 137.085938 56.734375 138.292969 C 60.101562 141.253906 63.378906 142.113281 67.625 142.5625 C 67.734375 142.574219 67.847656 142.554688 67.957031 142.554688 C 68.0625 142.554688 68.167969 142.5625 68.273438 142.5625 L 68.292969 142.5625 C 68.398438 142.5625 68.5 142.554688 68.605469 142.554688 C 68.71875 142.554688 68.828125 142.574219 68.941406 142.5625 C 73.1875 142.113281 76.460938 141.253906 79.828125 138.292969 C 81.199219 137.085938 82.492188 135.503906 83.15625 133.769531 C 83.578125 132.675781 83.394531 131.382812 83.570312 130.226562 C 83.742188 129.097656 83.984375 127.917969 84.496094 126.886719 C 85.214844 125.4375 85.246094 122.65625 85.246094 122.65625 C 85.246094 111.488281 77.945312 102.433594 68.941406 102.433594 " fill-opacity="1" fill-rule="nonzero"/><path fill="#ad857f" d="M 68.863281 142.566406 C 68.777344 142.566406 68.691406 142.554688 68.605469 142.554688 C 68.621094 142.554688 68.636719 142.554688 68.652344 142.554688 C 68.671875 142.554688 68.691406 142.558594 68.707031 142.558594 C 68.71875 142.558594 68.730469 142.558594 68.742188 142.5625 C 68.78125 142.566406 68.820312 142.566406 68.863281 142.566406 " fill-opacity="1" fill-rule="nonzero"/><path fill="#ad857f" d="M 67.699219 142.566406 C 67.675781 142.566406 67.648438 142.566406 67.625 142.5625 C 67.597656 142.558594 67.574219 142.558594 67.550781 142.554688 C 67.574219 142.558594 67.597656 142.558594 67.625 142.5625 C 67.648438 142.566406 67.675781 142.566406 67.699219 142.566406 " fill-opacity="1" fill-rule="nonzero"/><path fill="#ad857f" d="M 68.292969 142.5625 L 68.28125 142.5625 L 68.292969 142.5625 M 68.269531 142.5625 C 68.167969 142.5625 68.0625 142.554688 67.957031 142.554688 C 68.0625 142.554688 68.167969 142.5625 68.273438 142.5625 L 68.269531 142.5625 " fill-opacity="1" fill-rule="nonzero"/><path fill="#cd9d8d" d="M 69.015625 142.554688 C 69.199219 142.535156 69.382812 142.511719 69.566406 142.492188 C 69.199219 142.449219 68.839844 142.398438 68.488281 142.347656 C 68.875 142.265625 69.253906 142.175781 69.628906 142.074219 C 72.398438 141.492188 74.808594 140.453125 77.261719 138.292969 C 78.632812 137.085938 79.925781 135.503906 80.589844 133.769531 C 81.011719 132.675781 80.828125 131.382812 81.003906 130.226562 C 81.175781 129.097656 81.417969 127.917969 81.925781 126.886719 C 82.648438 125.4375 82.675781 122.65625 82.675781 122.65625 C 82.675781 122.484375 82.675781 122.3125 82.671875 122.140625 C 83.195312 122.394531 83.65625 122.648438 84.0625 122.890625 C 84.0625 122.90625 84.0625 122.925781 84.0625 122.945312 C 84.0625 122.945312 84.03125 125.722656 83.3125 127.175781 C 82.800781 128.203125 82.5625 129.386719 82.390625 130.515625 C 82.214844 131.671875 82.394531 132.964844 81.976562 134.054688 C 81.308594 135.789062 80.019531 137.375 78.648438 138.578125 C 76.570312 140.40625 74.523438 141.433594 72.265625 142.054688 C 75 141.472656 77.386719 140.4375 79.816406 138.304688 C 76.472656 141.242188 73.21875 142.101562 69.015625 142.554688 M 79.816406 138.304688 C 79.820312 138.300781 79.824219 138.296875 79.828125 138.292969 C 79.824219 138.296875 79.820312 138.300781 79.816406 138.304688 M 83.15625 133.769531 C 83.574219 132.683594 83.398438 131.40625 83.566406 130.253906 C 83.398438 131.40625 83.574219 132.683594 83.15625 133.769531 " fill-opacity="1" fill-rule="nonzero"/><path fill="#b68e82" d="M 72.265625 142.054688 C 74.523438 141.433594 76.570312 140.40625 78.648438 138.578125 C 80.019531 137.375 81.308594 135.789062 81.976562 134.054688 C 82.394531 132.964844 82.214844 131.671875 82.390625 130.515625 C 82.5625 129.386719 82.800781 128.203125 83.3125 127.175781 C 84.03125 125.722656 84.0625 122.945312 84.0625 122.945312 C 84.0625 122.925781 84.0625 122.90625 84.0625 122.890625 C 84.507812 123.15625 84.882812 123.40625 85.195312 123.625 C 85.125 124.566406 84.941406 125.984375 84.492188 126.886719 C 83.984375 127.917969 83.742188 129.097656 83.570312 130.226562 C 83.570312 130.238281 83.570312 130.246094 83.566406 130.253906 C 83.398438 131.40625 83.574219 132.683594 83.15625 133.769531 C 82.492188 135.503906 81.199219 137.085938 79.828125 138.292969 C 79.824219 138.296875 79.820312 138.300781 79.816406 138.304688 C 77.386719 140.4375 75 141.472656 72.265625 142.054688 " fill-opacity="1" fill-rule="nonzero"/><path fill="#cd9d8d" d="M 68.863281 142.566406 C 68.890625 142.566406 68.914062 142.566406 68.941406 142.5625 C 68.964844 142.558594 68.988281 142.558594 69.015625 142.554688 C 68.988281 142.558594 68.964844 142.558594 68.941406 142.5625 C 68.914062 142.566406 68.890625 142.566406 68.863281 142.566406 " fill-opacity="1" fill-rule="nonzero"/><path fill="#ad857f" d="M 67.699219 142.566406 C 67.703125 142.566406 67.703125 142.566406 67.703125 142.566406 C 67.703125 142.566406 67.703125 142.566406 67.699219 142.566406 M 67.820312 142.5625 C 67.832031 142.558594 67.84375 142.558594 67.855469 142.558594 C 67.84375 142.558594 67.832031 142.558594 67.820312 142.5625 M 67.910156 142.554688 C 67.925781 142.554688 67.941406 142.554688 67.957031 142.554688 C 67.941406 142.554688 67.925781 142.554688 67.910156 142.554688 " fill-opacity="1" fill-rule="nonzero"/><path fill="#cd9d8d" d="M 67.699219 142.566406 C 67.785156 142.566406 67.871094 142.554688 67.957031 142.554688 C 67.941406 142.554688 67.925781 142.554688 67.910156 142.554688 C 67.890625 142.554688 67.875 142.558594 67.855469 142.558594 C 67.84375 142.558594 67.832031 142.558594 67.820312 142.5625 C 67.78125 142.566406 67.742188 142.566406 67.703125 142.566406 C 67.703125 142.566406 67.703125 142.566406 67.699219 142.566406 " fill-opacity="1" fill-rule="nonzero"/><path fill="#cd9d8d" d="M 68.292969 142.5625 C 68.398438 142.5625 68.5 142.554688 68.605469 142.554688 C 68.5 142.554688 68.398438 142.5625 68.292969 142.5625 " fill-opacity="1" fill-rule="nonzero"/><path fill="#cd9d8d" d="M 67.550781 142.554688 C 63.347656 142.101562 60.089844 141.242188 56.75 138.304688 C 59.179688 140.4375 61.5625 141.472656 64.296875 142.054688 C 62.039062 141.433594 59.996094 140.40625 57.917969 138.578125 C 56.546875 137.375 55.253906 135.789062 54.585938 134.054688 C 54.167969 132.964844 54.351562 131.671875 54.175781 130.515625 C 54.003906 129.386719 53.761719 128.203125 53.25 127.175781 C 52.53125 125.722656 52.5 122.945312 52.5 122.945312 C 52.5 122.933594 52.5 122.921875 52.5 122.910156 C 52.90625 122.667969 53.367188 122.414062 53.890625 122.15625 C 53.886719 122.324219 53.886719 122.492188 53.886719 122.65625 C 53.886719 122.65625 53.917969 125.4375 54.636719 126.886719 C 55.148438 127.917969 55.386719 129.097656 55.558594 130.226562 C 55.734375 131.382812 55.554688 132.675781 55.972656 133.769531 C 56.640625 135.503906 57.929688 137.085938 59.300781 138.292969 C 62.144531 140.796875 64.925781 141.792969 68.277344 142.316406 C 67.863281 142.382812 67.433594 142.4375 67 142.492188 C 67.179688 142.511719 67.363281 142.535156 67.550781 142.554688 M 56.75 138.304688 C 56.742188 138.300781 56.738281 138.296875 56.734375 138.292969 C 56.738281 138.296875 56.742188 138.300781 56.75 138.304688 M 53.253906 133.265625 C 53.035156 132.292969 53.140625 131.210938 52.992188 130.226562 C 52.84375 129.25 52.644531 128.230469 52.257812 127.304688 C 52.644531 128.230469 52.84375 129.25 52.992188 130.226562 C 53.140625 131.210938 53.035156 132.292969 53.253906 133.265625 " fill-opacity="1" fill-rule="nonzero"/><path fill="#9b7975" d="M 67.699219 142.566406 C 67.675781 142.566406 67.648438 142.566406 67.625 142.5625 C 67.597656 142.558594 67.574219 142.558594 67.550781 142.554688 C 67.574219 142.558594 67.597656 142.558594 67.625 142.5625 C 67.648438 142.566406 67.675781 142.566406 67.699219 142.566406 M 68.863281 142.566406 C 68.820312 142.566406 68.78125 142.566406 68.742188 142.5625 C 68.78125 142.566406 68.820312 142.566406 68.863281 142.566406 M 68.273438 142.5625 C 68.167969 142.5625 68.0625 142.554688 67.957031 142.554688 C 68.0625 142.554688 68.167969 142.5625 68.273438 142.5625 M 68.707031 142.558594 C 68.691406 142.558594 68.671875 142.554688 68.652344 142.554688 C 68.671875 142.554688 68.691406 142.558594 68.707031 142.558594 " fill-opacity="1" fill-rule="nonzero"/><path fill="#b68e82" d="M 68.863281 142.566406 C 68.820312 142.566406 68.78125 142.566406 68.742188 142.5625 C 68.730469 142.558594 68.71875 142.558594 68.707031 142.558594 C 68.691406 142.558594 68.671875 142.554688 68.652344 142.554688 C 68.636719 142.554688 68.621094 142.554688 68.605469 142.554688 C 68.5 142.554688 68.398438 142.5625 68.292969 142.5625 L 68.273438 142.5625 C 68.167969 142.5625 68.0625 142.554688 67.957031 142.554688 C 67.871094 142.554688 67.785156 142.566406 67.699219 142.566406 C 67.675781 142.566406 67.648438 142.566406 67.625 142.5625 C 67.597656 142.558594 67.574219 142.558594 67.550781 142.554688 C 67.363281 142.535156 67.179688 142.511719 67 142.492188 C 67.148438 142.507812 67.300781 142.527344 67.453125 142.542969 C 67.804688 142.484375 68.148438 142.417969 68.488281 142.347656 C 68.839844 142.398438 69.199219 142.449219 69.566406 142.492188 C 69.382812 142.511719 69.199219 142.535156 69.015625 142.554688 C 68.988281 142.558594 68.964844 142.558594 68.941406 142.5625 C 68.914062 142.566406 68.890625 142.566406 68.863281 142.566406 " fill-opacity="1" fill-rule="nonzero"/><path fill="#b68e82" d="M 64.296875 142.054688 C 61.5625 141.472656 59.179688 140.4375 56.75 138.304688 C 56.742188 138.300781 56.738281 138.296875 56.734375 138.292969 C 55.59375 137.289062 54.511719 136.027344 53.792969 134.632812 C 53.648438 134.347656 53.519531 134.0625 53.40625 133.769531 C 53.34375 133.605469 53.292969 133.4375 53.253906 133.265625 C 53.035156 132.292969 53.140625 131.210938 52.992188 130.226562 C 52.84375 129.25 52.644531 128.230469 52.257812 127.304688 C 52.199219 127.164062 52.136719 127.027344 52.070312 126.886719 C 51.621094 125.984375 51.441406 124.570312 51.367188 123.628906 L 51.371094 123.644531 C 51.679688 123.429688 52.058594 123.175781 52.5 122.910156 C 52.5 122.921875 52.5 122.933594 52.5 122.945312 C 52.5 122.945312 52.53125 125.722656 53.25 127.175781 C 53.761719 128.203125 54.003906 129.386719 54.175781 130.515625 C 54.351562 131.671875 54.167969 132.964844 54.585938 134.054688 C 55.253906 135.789062 56.546875 137.375 57.917969 138.578125 C 59.996094 140.40625 62.039062 141.433594 64.296875 142.054688 " fill-opacity="1" fill-rule="nonzero"/><path fill="#cd9d8d" d="M 68.28125 142.316406 C 68.28125 142.316406 68.28125 142.316406 68.277344 142.316406 C 68.75 142.242188 69.210938 142.160156 69.660156 142.066406 C 69.648438 142.066406 69.640625 142.070312 69.628906 142.074219 C 69.191406 142.164062 68.742188 142.246094 68.28125 142.316406 " fill-opacity="1" fill-rule="nonzero"/><path fill="#b68e82" d="M 68.488281 142.347656 C 68.417969 142.335938 68.351562 142.328125 68.28125 142.316406 C 68.742188 142.246094 69.191406 142.164062 69.628906 142.074219 C 69.253906 142.175781 68.875 142.265625 68.488281 142.347656 " fill-opacity="1" fill-rule="nonzero"/><path fill="#b68e82" d="M 67 142.492188 C 67.433594 142.4375 67.863281 142.382812 68.277344 142.316406 C 68.28125 142.316406 68.28125 142.316406 68.28125 142.316406 C 67.863281 142.382812 67.4375 142.4375 67 142.492188 " fill-opacity="1" fill-rule="nonzero"/><path fill="#a28178" d="M 67.453125 142.542969 C 67.300781 142.527344 67.148438 142.507812 67 142.492188 C 67.4375 142.4375 67.863281 142.382812 68.28125 142.316406 C 68.351562 142.328125 68.417969 142.335938 68.488281 142.347656 C 68.148438 142.417969 67.804688 142.484375 67.453125 142.542969 " fill-opacity="1" fill-rule="nonzero"/><path fill="#cd9d8d" d="M 68.753906 132.816406 C 67.355469 132.816406 66.746094 131.792969 66.746094 131.792969 C 66.652344 129.296875 67.996094 126.453125 67.996094 126.453125 C 67.683594 129.175781 67.84375 131.351562 67.84375 131.351562 C 67.996094 132.074219 69.335938 132.761719 69.335938 132.761719 C 69.128906 132.796875 68.933594 132.816406 68.753906 132.816406 " fill-opacity="1" fill-rule="nonzero"/><path fill="#362117" d="M 55.554688 125.859375 C 55.554688 125.859375 57.707031 122.746094 61.996094 124.808594 C 61.996094 124.808594 58.359375 120.910156 55.554688 125.859375 " fill-opacity="1" fill-rule="nonzero"/><path fill="#362117" d="M 62.605469 126.578125 C 62.605469 128.042969 61.546875 129.226562 60.238281 129.226562 C 58.929688 129.226562 57.871094 128.042969 57.871094 126.578125 C 57.871094 125.117188 58.929688 123.929688 60.238281 123.929688 C 61.546875 123.929688 62.605469 125.117188 62.605469 126.578125 " fill-opacity="1" fill-rule="nonzero"/><path fill="#362117" d="M 80.359375 125.859375 C 80.359375 125.859375 78.207031 122.746094 73.921875 124.808594 C 73.921875 124.808594 77.554688 120.910156 80.359375 125.859375 " fill-opacity="1" fill-rule="nonzero"/><path fill="#362117" d="M 73.308594 126.578125 C 73.308594 128.042969 74.367188 129.226562 75.675781 129.226562 C 76.984375 129.226562 78.042969 128.042969 78.042969 126.578125 C 78.042969 125.117188 76.984375 123.929688 75.675781 123.929688 C 74.367188 123.929688 73.308594 125.117188 73.308594 126.578125 " fill-opacity="1" fill-rule="nonzero"/><path fill="#362117" d="M 56.296875 121.691406 C 56.226562 121.695312 56.15625 121.671875 56.101562 121.617188 C 55.996094 121.515625 55.992188 121.347656 56.089844 121.242188 C 56.171875 121.15625 58.144531 119.132812 61.683594 120.238281 C 61.824219 120.28125 61.902344 120.429688 61.859375 120.570312 C 61.816406 120.710938 61.667969 120.789062 61.527344 120.746094 C 58.3125 119.738281 56.546875 121.53125 56.472656 121.609375 C 56.425781 121.660156 56.363281 121.6875 56.296875 121.691406 " fill-opacity="1" fill-rule="nonzero"/><path fill="#362117" d="M 79.617188 121.691406 C 79.6875 121.695312 79.761719 121.671875 79.816406 121.617188 C 79.921875 121.515625 79.925781 121.347656 79.824219 121.242188 C 79.742188 121.15625 77.773438 119.132812 74.230469 120.238281 C 74.09375 120.28125 74.015625 120.429688 74.058594 120.570312 C 74.101562 120.710938 74.25 120.789062 74.390625 120.746094 C 77.605469 119.738281 79.367188 121.53125 79.441406 121.609375 C 79.492188 121.660156 79.554688 121.6875 79.617188 121.691406 " fill-opacity="1" fill-rule="nonzero"/><path fill="#f7918b" d="M 60.101562 133.699219 C 60.113281 135.132812 58.96875 136.304688 57.539062 136.316406 C 56.113281 136.332031 54.945312 135.179688 54.933594 133.746094 C 54.921875 132.3125 56.066406 131.140625 57.496094 131.125 C 58.921875 131.113281 60.089844 132.265625 60.101562 133.699219 " fill-opacity="1" fill-rule="nonzero"/><path fill="#f7918b" d="M 80.90625 133.511719 C 80.921875 134.945312 79.773438 136.117188 78.347656 136.128906 C 76.917969 136.144531 75.753906 134.992188 75.738281 133.558594 C 75.726562 132.125 76.875 130.953125 78.300781 130.941406 C 79.726562 130.929688 80.894531 132.078125 80.90625 133.511719 " fill-opacity="1" fill-rule="nonzero"/><path fill="#dc575d" d="M 64.585938 135.140625 C 65.714844 134.929688 68.257812 134.597656 71.351562 135.15625 C 71.722656 135.222656 71.976562 135.570312 71.914062 135.945312 C 71.738281 137.054688 70.921875 139.105469 67.292969 138.828125 C 67.292969 138.828125 64.421875 138.546875 64.007812 135.925781 C 63.949219 135.554688 64.21875 135.210938 64.585938 135.140625 " fill-opacity="1" fill-rule="nonzero"/><path fill="#573920" d="M 51.367188 123.628906 L 51.339844 123.3125 C 51.34375 123.3125 51.34375 123.308594 51.347656 123.308594 C 51.351562 123.40625 51.359375 123.511719 51.367188 123.628906 M 85.199219 123.625 C 85.199219 123.625 85.195312 123.625 85.195312 123.625 C 85.207031 123.503906 85.210938 123.390625 85.21875 123.289062 C 85.222656 123.289062 85.226562 123.292969 85.230469 123.296875 L 85.199219 123.625 " fill-opacity="1" fill-rule="nonzero"/><path fill="#b28c81" d="M 85.195312 123.625 C 85.203125 123.503906 85.210938 123.390625 85.21875 123.289062 C 85.210938 123.390625 85.207031 123.503906 85.195312 123.625 M 82.671875 122.140625 C 81.855469 121.75 80.886719 121.359375 79.753906 121.03125 C 79.714844 120.820312 79.671875 120.617188 79.625 120.417969 C 80.832031 120.792969 81.835938 121.234375 82.65625 121.664062 C 82.664062 121.820312 82.667969 121.980469 82.671875 122.140625 " fill-opacity="1" fill-rule="nonzero"/><path fill="#a08077" d="M 84.0625 122.890625 C 83.65625 122.648438 83.195312 122.394531 82.671875 122.140625 C 82.667969 121.980469 82.664062 121.820312 82.65625 121.664062 C 83.203125 121.949219 83.667969 122.230469 84.058594 122.488281 C 84.0625 122.621094 84.0625 122.753906 84.0625 122.890625 " fill-opacity="1" fill-rule="nonzero"/><path fill="#8f746e" d="M 85.195312 123.625 C 84.882812 123.40625 84.507812 123.15625 84.0625 122.890625 C 84.0625 122.753906 84.0625 122.621094 84.058594 122.488281 C 84.5625 122.816406 84.941406 123.097656 85.21875 123.289062 C 85.210938 123.390625 85.203125 123.503906 85.195312 123.625 " fill-opacity="1" fill-rule="nonzero"/><path fill="#b28c81" d="M 53.890625 122.15625 C 53.894531 122 53.898438 121.839844 53.90625 121.679688 C 54.734375 121.242188 55.746094 120.796875 56.972656 120.417969 C 56.957031 120.484375 56.945312 120.550781 56.929688 120.617188 C 56.40625 120.917969 56.121094 121.210938 56.089844 121.242188 C 56.082031 121.253906 56.074219 121.261719 56.066406 121.273438 C 55.246094 121.546875 54.523438 121.851562 53.890625 122.15625 " fill-opacity="1" fill-rule="nonzero"/><path fill="#a08077" d="M 52.5 122.910156 C 52.503906 122.777344 52.503906 122.640625 52.503906 122.507812 C 52.894531 122.253906 53.359375 121.96875 53.90625 121.679688 C 53.898438 121.839844 53.894531 122 53.890625 122.15625 C 53.367188 122.414062 52.90625 122.667969 52.5 122.910156 " fill-opacity="1" fill-rule="nonzero"/><path fill="#b28c81" d="M 60.269531 120.621094 L 60.296875 120.621094 C 60.296875 120.621094 60.289062 120.570312 60.28125 120.476562 C 60.460938 120.496094 60.644531 120.527344 60.835938 120.566406 C 60.640625 120.582031 60.449219 120.601562 60.269531 120.621094 M 61.871094 120.480469 C 61.867188 120.371094 61.792969 120.273438 61.683594 120.238281 C 61.160156 120.074219 60.671875 119.980469 60.21875 119.9375 C 60.117188 118.984375 59.953125 117.167969 59.953125 115.3125 C 59.953125 115.3125 59.339844 115.746094 58.632812 116.71875 C 59.445312 115.402344 60.265625 114.828125 60.265625 114.828125 C 60.265625 114.972656 60.265625 115.117188 60.269531 115.261719 C 60.289062 117.804688 60.59375 119.933594 60.59375 119.933594 L 60.570312 119.9375 C 60.582031 119.9375 60.597656 119.933594 60.609375 119.933594 L 61.574219 119.84375 C 63.445312 119.6875 65.871094 119.613281 68.296875 119.613281 C 70.722656 119.613281 73.144531 119.6875 75.019531 119.839844 C 75.019531 119.84375 75.019531 119.84375 75.019531 119.84375 L 75.867188 119.921875 C 75.367188 119.957031 74.820312 120.054688 74.230469 120.238281 C 74.136719 120.269531 74.070312 120.347656 74.050781 120.4375 C 72.328125 120.335938 70.3125 120.285156 68.300781 120.285156 C 66.011719 120.285156 63.726562 120.351562 61.871094 120.480469 M 76.003906 119.914062 C 76.007812 119.875 76.019531 119.773438 76.039062 119.617188 C 76.113281 119.003906 76.273438 117.550781 76.316406 115.835938 C 76.324219 115.507812 76.332031 115.167969 76.332031 114.828125 C 76.332031 114.828125 77.140625 115.394531 77.949219 116.699219 C 77.25 115.738281 76.644531 115.3125 76.644531 115.3125 C 76.644531 117.152344 76.484375 118.949219 76.382812 119.910156 C 76.351562 119.90625 76.316406 119.90625 76.285156 119.90625 C 76.191406 119.90625 76.097656 119.910156 76.003906 119.914062 " fill-opacity="1" fill-rule="nonzero"/><path fill="#8f746e" d="M 51.371094 123.644531 L 51.367188 123.628906 C 51.359375 123.511719 51.351562 123.40625 51.347656 123.308594 C 51.617188 123.121094 52 122.839844 52.503906 122.507812 C 52.503906 122.640625 52.503906 122.777344 52.5 122.910156 C 52.058594 123.175781 51.679688 123.429688 51.371094 123.644531 " fill-opacity="1" fill-rule="nonzero"/><path fill="#2c1c15" d="M 56.066406 121.273438 C 56.074219 121.261719 56.082031 121.253906 56.089844 121.242188 C 56.121094 121.210938 56.40625 120.917969 56.929688 120.617188 C 56.898438 120.75 56.871094 120.890625 56.84375 121.03125 C 56.574219 121.109375 56.316406 121.191406 56.066406 121.273438 M 60.835938 120.566406 C 60.644531 120.527344 60.460938 120.496094 60.28125 120.476562 C 60.265625 120.359375 60.242188 120.175781 60.21875 119.9375 C 60.671875 119.980469 61.160156 120.074219 61.683594 120.238281 C 61.792969 120.273438 61.867188 120.371094 61.871094 120.480469 C 61.507812 120.507812 61.164062 120.535156 60.835938 120.566406 " fill-opacity="1" fill-rule="nonzero"/><path fill="#b28c81" d="M 76.328125 120.621094 C 76.007812 120.589844 75.660156 120.554688 75.296875 120.523438 C 75.644531 120.464844 75.976562 120.4375 76.28125 120.4375 C 76.296875 120.4375 76.308594 120.4375 76.324219 120.4375 C 76.308594 120.558594 76.300781 120.621094 76.300781 120.621094 L 76.328125 120.621094 " fill-opacity="1" fill-rule="nonzero"/><path fill="#2c1c15" d="M 75.296875 120.523438 C 74.902344 120.492188 74.488281 120.464844 74.050781 120.4375 C 74.070312 120.347656 74.136719 120.269531 74.230469 120.238281 C 74.820312 120.054688 75.367188 119.957031 75.867188 119.921875 L 75.996094 119.933594 C 76.007812 119.933594 76.015625 119.9375 76.027344 119.9375 L 76 119.933594 C 76 119.933594 76 119.925781 76.003906 119.914062 C 76.097656 119.910156 76.191406 119.90625 76.285156 119.90625 C 76.316406 119.90625 76.351562 119.90625 76.382812 119.910156 C 76.359375 120.136719 76.335938 120.316406 76.324219 120.4375 C 76.308594 120.4375 76.296875 120.4375 76.28125 120.4375 C 75.976562 120.4375 75.644531 120.464844 75.296875 120.523438 " fill-opacity="1" fill-rule="nonzero"/><path fill="#634022" d="M 50.363281 122.082031 C 47.203125 107.570312 57.5625 103.492188 57.675781 103.449219 C 54.539062 105.546875 51.65625 109.246094 50.59375 115.726562 C 50.1875 117.632812 49.953125 119.90625 50.363281 122.082031 " fill-opacity="1" fill-rule="nonzero"/><path fill="#634022" d="M 86.148438 122.21875 C 86.695312 118.550781 86.246094 115.769531 85.535156 113.65625 C 84.25 108.449219 81.671875 105.328125 78.890625 103.457031 C 79.5 103.710938 89.316406 107.96875 86.148438 122.21875 " fill-opacity="1" fill-rule="nonzero"/><path fill="#6f4725" d="M 85.535156 113.65625 C 81.984375 99.269531 68.546875 100.777344 68.277344 100.808594 C 67.996094 100.773438 53.3125 99.125 50.59375 115.726562 C 50.125 117.914062 49.890625 120.582031 50.585938 123.035156 C 50.675781 123.359375 51.0625 123.503906 51.339844 123.3125 C 52.164062 122.75 53.992188 121.28125 57.269531 120.332031 C 58.019531 116.398438 60.265625 114.828125 60.265625 114.828125 C 60.265625 117.421875 60.59375 119.933594 60.59375 119.933594 L 60.570312 119.9375 C 64.480469 119.503906 72.113281 119.503906 76.027344 119.9375 L 76 119.933594 C 76 119.933594 76.332031 117.421875 76.332031 114.828125 C 76.332031 114.828125 78.578125 116.398438 79.324219 120.332031 C 82.605469 121.28125 84.433594 122.75 85.253906 123.3125 C 85.535156 123.503906 85.917969 123.359375 86.011719 123.035156 C 86.761719 118.957031 86.300781 115.921875 85.535156 113.65625 " fill-opacity="1" fill-rule="nonzero"/><path fill="#9f8078" d="M 60.59375 119.933594 C 60.59375 119.933594 60.289062 117.804688 60.269531 115.261719 C 60.300781 117.695312 60.59375 119.933594 60.59375 119.933594 M 60.609375 119.933594 C 60.910156 119.898438 61.234375 119.871094 61.574219 119.84375 L 60.609375 119.933594 " fill-opacity="1" fill-rule="nonzero"/><path fill="#634022" d="M 60.59375 119.933594 C 60.59375 119.933594 60.300781 117.695312 60.269531 115.261719 C 60.253906 113.320312 60.40625 111.140625 60.996094 109.484375 C 60.996094 109.484375 60.703125 114.203125 61.574219 119.84375 C 61.234375 119.871094 60.910156 119.898438 60.609375 119.933594 L 60.59375 119.933594 " fill-opacity="1" fill-rule="nonzero"/><path fill="#9f8078" d="M 75.867188 119.921875 L 75.019531 119.84375 C 75.019531 119.84375 75.019531 119.84375 75.019531 119.839844 C 75.320312 119.867188 75.609375 119.894531 75.878906 119.921875 C 75.875 119.921875 75.871094 119.921875 75.867188 119.921875 " fill-opacity="1" fill-rule="nonzero"/><path fill="#281b15" d="M 75.996094 119.933594 L 75.867188 119.921875 C 75.871094 119.921875 75.875 119.921875 75.878906 119.921875 C 75.917969 119.925781 75.957031 119.929688 75.996094 119.933594 " fill-opacity="1" fill-rule="nonzero"/><path fill="#9f8078" d="M 76.039062 119.617188 C 76.109375 118.988281 76.265625 117.5 76.316406 115.835938 C 76.273438 117.550781 76.113281 119.003906 76.039062 119.617188 " fill-opacity="1" fill-rule="nonzero"/><path fill="#634022" d="M 75.996094 119.933594 C 75.957031 119.929688 75.917969 119.925781 75.878906 119.921875 C 75.609375 119.894531 75.320312 119.867188 75.019531 119.839844 C 75.890625 114.203125 75.59375 109.484375 75.59375 109.484375 C 76.242188 111.304688 76.367188 113.761719 76.316406 115.835938 C 76.265625 117.5 76.109375 118.988281 76.039062 119.617188 C 76.011719 119.816406 75.996094 119.929688 75.996094 119.933594 " fill-opacity="1" fill-rule="nonzero"/><path fill="#f388ad" d="M 80.117188 147.191406 C 80.117188 147.191406 84.382812 149.980469 85.519531 160.855469 L 80.042969 163.160156 C 80.042969 163.160156 79.339844 152.855469 80.117188 147.191406 " fill-opacity="1" fill-rule="nonzero"/><path fill="#f388ad" d="M 57.003906 160.0625 C 57.003906 160.0625 57.867188 154.101562 56.875 147.191406 C 56.875 147.191406 54.152344 149.359375 49.71875 155.167969 C 49.71875 155.167969 51.84375 161.386719 54.164062 163.511719 L 56.960938 161.886719 L 57.003906 160.0625 " fill-opacity="1" fill-rule="nonzero"/><path fill="#f388ad" d="M 79.972656 158.980469 C 79.867188 153.496094 80.117188 147.191406 80.117188 147.191406 C 76.582031 144.289062 71.34375 144.039062 71.34375 144.039062 C 71.300781 146.113281 68.496094 146.199219 68.496094 146.199219 C 68.496094 146.199219 65.6875 146.113281 65.648438 144.039062 C 65.648438 144.039062 60.410156 144.289062 56.875 147.191406 C 56.875 147.191406 57.121094 153.496094 57.015625 158.980469 C 56.949219 166.542969 55.9375 184.980469 54.570312 192.691406 L 82.417969 192.691406 C 81.054688 184.980469 80.042969 166.542969 79.972656 158.980469 " fill-opacity="1" fill-rule="nonzero"/><path fill="#c87695" d="M 70.304688 148.828125 C 69.292969 148.828125 68.757812 148.222656 68.476562 147.644531 C 68.195312 148.222656 67.660156 148.828125 66.648438 148.828125 C 66.421875 148.828125 66.167969 148.796875 65.890625 148.726562 C 63.230469 148.078125 63.761719 144.699219 63.761719 144.699219 C 63.761719 144.699219 64.628906 144.523438 65.648438 144.460938 C 65.613281 145.480469 66.488281 146 66.488281 146 C 67.257812 146.507812 68.050781 146.597656 68.472656 146.605469 L 68.480469 146.605469 C 68.898438 146.597656 69.691406 146.507812 70.464844 146 C 70.464844 146 71.335938 145.480469 71.304688 144.460938 C 72.320312 144.523438 73.191406 144.699219 73.191406 144.699219 C 73.191406 144.699219 73.71875 148.078125 71.058594 148.726562 C 70.78125 148.796875 70.53125 148.828125 70.304688 148.828125 " fill-opacity="1" fill-rule="nonzero"/><path fill="#ffffff" d="M 73.191406 144.277344 C 73.191406 144.277344 72.320312 144.101562 71.304688 144.039062 C 71.335938 145.058594 70.464844 145.578125 70.464844 145.578125 C 69.691406 146.089844 68.898438 146.179688 68.480469 146.183594 L 68.472656 146.183594 C 68.050781 146.179688 67.257812 146.089844 66.488281 145.578125 C 66.488281 145.578125 65.613281 145.058594 65.648438 144.039062 C 64.628906 144.101562 63.761719 144.277344 63.761719 144.277344 C 63.761719 144.277344 63.230469 147.65625 65.890625 148.308594 C 67.40625 148.679688 68.132812 147.933594 68.476562 147.222656 C 68.820312 147.933594 69.542969 148.679688 71.058594 148.308594 C 73.71875 147.65625 73.191406 144.277344 73.191406 144.277344 " fill-opacity="1" fill-rule="nonzero"/><path fill="#e8e7e7" d="M 69.113281 150.980469 C 69.113281 151.332031 68.828125 151.621094 68.476562 151.621094 C 68.121094 151.621094 67.835938 151.332031 67.835938 150.980469 C 67.835938 150.625 68.121094 150.335938 68.476562 150.335938 C 68.828125 150.335938 69.113281 150.625 69.113281 150.980469 " fill-opacity="1" fill-rule="nonzero"/><path fill="#e8e7e7" d="M 69.113281 155.15625 C 69.113281 155.511719 68.828125 155.796875 68.476562 155.796875 C 68.121094 155.796875 67.835938 155.511719 67.835938 155.15625 C 67.835938 154.800781 68.121094 154.515625 68.476562 154.515625 C 68.828125 154.515625 69.113281 154.800781 69.113281 155.15625 " fill-opacity="1" fill-rule="nonzero"/><path fill="#e8e7e7" d="M 69.113281 159.332031 C 69.113281 159.6875 68.828125 159.976562 68.476562 159.976562 C 68.121094 159.976562 67.835938 159.6875 67.835938 159.332031 C 67.835938 158.976562 68.121094 158.691406 68.476562 158.691406 C 68.828125 158.691406 69.113281 158.976562 69.113281 159.332031 " fill-opacity="1" fill-rule="nonzero"/><path fill="#e8e7e7" d="M 69.113281 163.511719 C 69.113281 163.863281 68.828125 164.152344 68.476562 164.152344 C 68.121094 164.152344 67.835938 163.863281 67.835938 163.511719 C 67.835938 163.15625 68.121094 162.867188 68.476562 162.867188 C 68.828125 162.867188 69.113281 163.15625 69.113281 163.511719 " fill-opacity="1" fill-rule="nonzero"/><path fill="#7e8186" d="M 76 169.730469 C 75.855469 169.703125 75.753906 169.582031 75.75 169.433594 C 75.746094 169.261719 75.882812 169.117188 76.054688 169.113281 C 77.726562 169.066406 77.863281 168.4375 78.113281 167.292969 L 78.128906 167.21875 C 78.375 166.089844 78.246094 163.078125 78.246094 163.046875 C 78.242188 162.964844 78.269531 162.882812 78.328125 162.820312 C 78.382812 162.761719 78.460938 162.722656 78.542969 162.71875 C 78.570312 162.71875 78.59375 162.722656 78.621094 162.726562 C 78.757812 162.757812 78.863281 162.875 78.867188 163.019531 C 78.875 163.148438 79.003906 166.136719 78.738281 167.355469 L 78.722656 167.425781 C 78.59375 168.019531 78.472656 168.578125 78.113281 169 C 77.710938 169.476562 77.0625 169.710938 76.070312 169.738281 C 76.046875 169.738281 76.023438 169.738281 76 169.730469 " fill-opacity="1" fill-rule="nonzero"/><path fill="#383538" d="M 76.234375 169.136719 C 76.230469 169.035156 76.160156 168.941406 76.046875 168.902344 C 75.496094 168.699219 73.890625 168.21875 73.914062 169.472656 C 73.933594 170.722656 75.523438 170.1875 76.066406 169.96875 C 76.175781 169.925781 76.242188 169.832031 76.242188 169.726562 L 76.234375 169.136719 " fill-opacity="1" fill-rule="nonzero"/><path fill="#7e8186" d="M 68.671875 168.207031 C 68.648438 168.199219 68.625 168.195312 68.601562 168.183594 C 67.707031 167.761719 67.203125 167.289062 67.019531 166.691406 C 66.859375 166.160156 66.96875 165.597656 67.085938 165.003906 L 67.101562 164.929688 C 67.339844 163.707031 68.640625 161.015625 68.695312 160.902344 C 68.757812 160.773438 68.902344 160.703125 69.039062 160.730469 C 69.066406 160.738281 69.089844 160.746094 69.113281 160.757812 C 69.1875 160.792969 69.246094 160.855469 69.273438 160.9375 C 69.296875 161.015625 69.292969 161.101562 69.257812 161.175781 C 69.203125 161.285156 67.933594 163.921875 67.710938 165.050781 L 67.699219 165.125 C 67.472656 166.273438 67.347656 166.902344 68.867188 167.617188 C 69.023438 167.6875 69.089844 167.875 69.015625 168.03125 C 68.957031 168.164062 68.8125 168.234375 68.671875 168.207031 " fill-opacity="1" fill-rule="nonzero"/><path fill="#383538" d="M 79.0625 162.878906 C 79.046875 161.601562 78.855469 160.417969 78.488281 159.363281 C 77.796875 157.386719 76.574219 156.121094 75.046875 155.800781 C 73.519531 155.484375 71.894531 156.15625 70.480469 157.695312 C 69.726562 158.515625 69.078125 159.523438 68.558594 160.6875 C 68.519531 160.785156 68.519531 160.890625 68.566406 160.984375 C 68.613281 161.074219 68.699219 161.140625 68.800781 161.160156 L 69.152344 161.234375 C 69.308594 161.265625 69.464844 161.1875 69.53125 161.042969 C 69.984375 160.046875 70.542969 159.183594 71.1875 158.484375 C 72.347656 157.226562 73.636719 156.667969 74.816406 156.914062 C 76 157.160156 76.960938 158.1875 77.523438 159.804688 C 77.839844 160.703125 78.007812 161.714844 78.03125 162.8125 C 78.035156 162.972656 78.148438 163.109375 78.300781 163.140625 L 78.65625 163.214844 C 78.757812 163.234375 78.859375 163.210938 78.9375 163.144531 C 79.019531 163.078125 79.0625 162.980469 79.0625 162.878906 " fill-opacity="1" fill-rule="nonzero"/><path fill="#383538" d="M 68.691406 167.566406 C 68.734375 167.472656 68.835938 167.417969 68.957031 167.425781 C 69.539062 167.460938 71.203125 167.660156 70.6875 168.800781 C 70.175781 169.941406 68.929688 168.816406 68.515625 168.398438 C 68.433594 168.3125 68.40625 168.199219 68.449219 168.105469 L 68.691406 167.566406 " fill-opacity="1" fill-rule="nonzero"/><path fill="#383538" d="M 71.285156 144.027344 C 71.351562 144.074219 71.425781 144.105469 71.503906 144.121094 C 72.496094 144.320312 73.261719 144.84375 73.839844 145.71875 C 75.992188 148.992188 74.617188 155.773438 74.601562 155.839844 C 74.535156 156.160156 74.738281 156.472656 75.054688 156.539062 C 75.375 156.609375 75.6875 156.402344 75.753906 156.082031 C 75.816406 155.785156 77.246094 148.753906 74.820312 145.070312 C 74.09375 143.964844 73.09375 143.265625 71.851562 142.988281 C 71.851562 142.988281 71.464844 142.929688 71.285156 142.9375 L 71.285156 144.027344 " fill-opacity="1" fill-rule="nonzero"/><path fill="#383538" d="M 65.714844 144.027344 C 65.648438 144.074219 65.574219 144.105469 65.496094 144.121094 C 64.503906 144.320312 63.742188 144.84375 63.164062 145.71875 C 61.007812 148.992188 61.910156 158.761719 61.925781 158.828125 C 61.992188 159.148438 61.789062 159.460938 61.46875 159.527344 C 61.152344 159.59375 60.839844 159.390625 60.773438 159.070312 C 60.710938 158.773438 59.757812 148.753906 62.179688 145.070312 C 62.910156 143.964844 63.90625 143.265625 65.148438 142.988281 C 65.148438 142.988281 65.535156 142.929688 65.714844 142.9375 L 65.714844 144.027344 " fill-opacity="1" fill-rule="nonzero"/><path fill="#383538" d="M 64.03125 160.488281 C 64.03125 161.878906 62.910156 163.007812 61.523438 163.007812 C 60.140625 163.007812 59.015625 161.878906 59.015625 160.488281 C 59.015625 159.097656 60.140625 157.96875 61.523438 157.96875 C 62.910156 157.96875 64.03125 159.097656 64.03125 160.488281 " fill-opacity="1" fill-rule="nonzero"/><path fill="#7e8186" d="M 61.523438 161.839844 C 60.78125 161.839844 60.179688 161.234375 60.179688 160.488281 C 60.179688 159.746094 60.78125 159.140625 61.523438 159.140625 C 62.265625 159.140625 62.867188 159.746094 62.867188 160.488281 C 62.867188 161.234375 62.265625 161.839844 61.523438 161.839844 " fill-opacity="1" fill-rule="nonzero"/><g clip-path="url(#768ca89f37)"><path fill="#f1d2da" d="M 68.496094 90.296875 C 60.113281 90.296875 52.820312 94.066406 49.078125 99.621094 L 54.683594 106.097656 C 58.46875 103.644531 63.269531 102.179688 68.496094 102.179688 C 73.726562 102.179688 78.527344 103.644531 82.308594 106.097656 L 87.917969 99.621094 C 84.175781 94.066406 76.882812 90.296875 68.496094 90.296875 " fill-opacity="1" fill-rule="nonzero"/></g><g fill="#ff66c4" fill-opacity="1"><g transform="translate(96.867567, 169.449949)"><g><path d="M 20.828125 -17.03125 C 20.828125 -14.25 20.003906 -12.09375 18.359375 -10.5625 C 16.710938 -9.039062 14.375 -8.28125 11.34375 -8.28125 L 9.453125 -8.28125 L 9.453125 0 L 2.703125 0 L 2.703125 -24.984375 L 11.34375 -24.984375 C 14.5 -24.984375 16.867188 -24.289062 18.453125 -22.90625 C 20.035156 -21.53125 20.828125 -19.570312 20.828125 -17.03125 Z M 9.453125 -13.796875 L 10.6875 -13.796875 C 11.695312 -13.796875 12.5 -14.078125 13.09375 -14.640625 C 13.695312 -15.210938 14 -16 14 -17 C 14 -18.6875 13.0625 -19.53125 11.1875 -19.53125 L 9.453125 -19.53125 Z M 9.453125 -13.796875 "/></g></g></g><g fill="#ff66c4" fill-opacity="1"><g transform="translate(118.976887, 169.449949)"><g><path d="M 9.453125 -9.09375 L 9.453125 0 L 2.703125 0 L 2.703125 -24.984375 L 10.890625 -24.984375 C 17.679688 -24.984375 21.078125 -22.523438 21.078125 -17.609375 C 21.078125 -14.710938 19.660156 -12.472656 16.828125 -10.890625 L 24.109375 0 L 16.453125 0 L 11.15625 -9.09375 Z M 9.453125 -14.171875 L 10.71875 -14.171875 C 13.070312 -14.171875 14.25 -15.210938 14.25 -17.296875 C 14.25 -19.015625 13.09375 -19.875 10.78125 -19.875 L 9.453125 -19.875 Z M 9.453125 -14.171875 "/></g></g></g><g fill="#ff66c4" fill-opacity="1"><g transform="translate(142.658122, 169.449949)"><g><path d="M 17.53125 0 L 2.703125 0 L 2.703125 -24.984375 L 17.53125 -24.984375 L 17.53125 -19.5625 L 9.453125 -19.5625 L 9.453125 -15.640625 L 16.9375 -15.640625 L 16.9375 -10.21875 L 9.453125 -10.21875 L 9.453125 -5.5 L 17.53125 -5.5 Z M 17.53125 0 "/></g></g></g><g fill="#ff66c4" fill-opacity="1"><g transform="translate(161.862817, 169.449949)"><g><path d="M 19.03125 -7.59375 C 19.03125 -6.039062 18.640625 -4.660156 17.859375 -3.453125 C 17.078125 -2.253906 15.941406 -1.320312 14.453125 -0.65625 C 12.972656 0.0078125 11.238281 0.34375 9.25 0.34375 C 7.582031 0.34375 6.179688 0.226562 5.046875 0 C 3.921875 -0.238281 2.75 -0.648438 1.53125 -1.234375 L 1.53125 -7.25 C 2.820312 -6.582031 4.160156 -6.0625 5.546875 -5.6875 C 6.941406 -5.320312 8.21875 -5.140625 9.375 -5.140625 C 10.382812 -5.140625 11.117188 -5.3125 11.578125 -5.65625 C 12.046875 -6.007812 12.28125 -6.457031 12.28125 -7 C 12.28125 -7.34375 12.1875 -7.640625 12 -7.890625 C 11.8125 -8.148438 11.507812 -8.410156 11.09375 -8.671875 C 10.675781 -8.941406 9.570312 -9.476562 7.78125 -10.28125 C 6.144531 -11.03125 4.921875 -11.75 4.109375 -12.4375 C 3.296875 -13.132812 2.691406 -13.929688 2.296875 -14.828125 C 1.898438 -15.734375 1.703125 -16.800781 1.703125 -18.03125 C 1.703125 -20.332031 2.539062 -22.125 4.21875 -23.40625 C 5.894531 -24.695312 8.195312 -25.34375 11.125 -25.34375 C 13.707031 -25.34375 16.34375 -24.742188 19.03125 -23.546875 L 16.96875 -18.34375 C 14.632812 -19.40625 12.617188 -19.9375 10.921875 -19.9375 C 10.046875 -19.9375 9.40625 -19.78125 9 -19.46875 C 8.601562 -19.164062 8.40625 -18.789062 8.40625 -18.34375 C 8.40625 -17.851562 8.65625 -17.410156 9.15625 -17.015625 C 9.664062 -16.628906 11.046875 -15.925781 13.296875 -14.90625 C 15.453125 -13.9375 16.945312 -12.894531 17.78125 -11.78125 C 18.613281 -10.675781 19.03125 -9.28125 19.03125 -7.59375 Z M 19.03125 -7.59375 "/></g></g></g><g fill="#ff66c4" fill-opacity="1"><g transform="translate(182.058502, 169.449949)"><g><path d="M 13.828125 -19.8125 C 12.222656 -19.8125 10.96875 -19.148438 10.0625 -17.828125 C 9.164062 -16.515625 8.71875 -14.703125 8.71875 -12.390625 C 8.71875 -7.578125 10.546875 -5.171875 14.203125 -5.171875 C 15.304688 -5.171875 16.375 -5.320312 17.40625 -5.625 C 18.445312 -5.9375 19.492188 -6.3125 20.546875 -6.75 L 20.546875 -1.046875 C 18.460938 -0.117188 16.101562 0.34375 13.46875 0.34375 C 9.695312 0.34375 6.804688 -0.75 4.796875 -2.9375 C 2.785156 -5.125 1.78125 -8.285156 1.78125 -12.421875 C 1.78125 -15.003906 2.265625 -17.273438 3.234375 -19.234375 C 4.210938 -21.203125 5.613281 -22.710938 7.4375 -23.765625 C 9.269531 -24.816406 11.421875 -25.34375 13.890625 -25.34375 C 16.585938 -25.34375 19.171875 -24.753906 21.640625 -23.578125 L 19.5625 -18.265625 C 18.644531 -18.703125 17.722656 -19.066406 16.796875 -19.359375 C 15.878906 -19.660156 14.890625 -19.8125 13.828125 -19.8125 Z M 13.828125 -19.8125 "/></g></g></g><g fill="#ff66c4" fill-opacity="1"><g transform="translate(204.765833, 169.449949)"><g><path d="M 9.453125 -9.09375 L 9.453125 0 L 2.703125 0 L 2.703125 -24.984375 L 10.890625 -24.984375 C 17.679688 -24.984375 21.078125 -22.523438 21.078125 -17.609375 C 21.078125 -14.710938 19.660156 -12.472656 16.828125 -10.890625 L 24.109375 0 L 16.453125 0 L 11.15625 -9.09375 Z M 9.453125 -14.171875 L 10.71875 -14.171875 C 13.070312 -14.171875 14.25 -15.210938 14.25 -17.296875 C 14.25 -19.015625 13.09375 -19.875 10.78125 -19.875 L 9.453125 -19.875 Z M 9.453125 -14.171875 "/></g></g></g><g fill="#ff66c4" fill-opacity="1"><g transform="translate(228.447068, 169.449949)"><g><path d="M 2.703125 0 L 2.703125 -24.984375 L 9.484375 -24.984375 L 9.484375 0 Z M 2.703125 0 "/></g></g></g><g fill="#ff66c4" fill-opacity="1"><g transform="translate(240.629406, 169.449949)"><g><path d="M 20.828125 -17.03125 C 20.828125 -14.25 20.003906 -12.09375 18.359375 -10.5625 C 16.710938 -9.039062 14.375 -8.28125 11.34375 -8.28125 L 9.453125 -8.28125 L 9.453125 0 L 2.703125 0 L 2.703125 -24.984375 L 11.34375 -24.984375 C 14.5 -24.984375 16.867188 -24.289062 18.453125 -22.90625 C 20.035156 -21.53125 20.828125 -19.570312 20.828125 -17.03125 Z M 9.453125 -13.796875 L 10.6875 -13.796875 C 11.695312 -13.796875 12.5 -14.078125 13.09375 -14.640625 C 13.695312 -15.210938 14 -16 14 -17 C 14 -18.6875 13.0625 -19.53125 11.1875 -19.53125 L 9.453125 -19.53125 Z M 9.453125 -13.796875 "/></g></g></g><g fill="#ff66c4" fill-opacity="1"><g transform="translate(262.738726, 169.449949)"><g><path d="M 13.71875 0 L 6.96875 0 L 6.96875 -19.46875 L 0.875 -19.46875 L 0.875 -24.984375 L 19.8125 -24.984375 L 19.8125 -19.46875 L 13.71875 -19.46875 Z M 13.71875 0 "/></g></g></g><g fill="#ff66c4" fill-opacity="1"><g transform="translate(283.412819, 169.449949)"><g><path d="M 2.703125 0 L 2.703125 -24.984375 L 9.484375 -24.984375 L 9.484375 0 Z M 2.703125 0 "/></g></g></g><g fill="#ff66c4" fill-opacity="1"><g transform="translate(295.595168, 169.449949)"><g><path d="M 26.078125 -12.53125 C 26.078125 -8.320312 25.046875 -5.125 22.984375 -2.9375 C 20.921875 -0.75 17.898438 0.34375 13.921875 0.34375 C 10.003906 0.34375 7 -0.753906 4.90625 -2.953125 C 2.820312 -5.148438 1.78125 -8.351562 1.78125 -12.5625 C 1.78125 -16.71875 2.816406 -19.890625 4.890625 -22.078125 C 6.972656 -24.273438 10 -25.375 13.96875 -25.375 C 17.9375 -25.375 20.945312 -24.285156 23 -22.109375 C 25.050781 -19.929688 26.078125 -16.738281 26.078125 -12.53125 Z M 8.890625 -12.53125 C 8.890625 -7.695312 10.566406 -5.28125 13.921875 -5.28125 C 15.628906 -5.28125 16.894531 -5.863281 17.71875 -7.03125 C 18.550781 -8.207031 18.96875 -10.039062 18.96875 -12.53125 C 18.96875 -15.019531 18.546875 -16.859375 17.703125 -18.046875 C 16.867188 -19.242188 15.625 -19.84375 13.96875 -19.84375 C 10.582031 -19.84375 8.890625 -17.40625 8.890625 -12.53125 Z M 8.890625 -12.53125 "/></g></g></g><g fill="#ff66c4" fill-opacity="1"><g transform="translate(323.479566, 169.449949)"><g><path d="M 26.484375 0 L 17.640625 0 L 8.515625 -17.609375 L 8.359375 -17.609375 C 8.578125 -14.835938 8.6875 -12.722656 8.6875 -11.265625 L 8.6875 0 L 2.703125 0 L 2.703125 -24.984375 L 11.515625 -24.984375 L 20.609375 -7.625 L 20.71875 -7.625 C 20.550781 -10.144531 20.46875 -12.164062 20.46875 -13.6875 L 20.46875 -24.984375 L 26.484375 -24.984375 Z M 26.484375 0 "/></g></g></g><g fill="#000000" fill-opacity="1"><g transform="translate(96.867567, 227.499976)"><g><path d="M 26.78125 0 L 24.953125 -6.953125 L 12.90625 -6.953125 L 11.015625 0 L 0 0 L 12.109375 -37.28125 L 25.5 -37.28125 L 37.75 0 Z M 22.875 -15.1875 L 21.28125 -21.28125 C 20.90625 -22.632812 20.453125 -24.382812 19.921875 -26.53125 C 19.390625 -28.6875 19.035156 -30.226562 18.859375 -31.15625 C 18.710938 -30.289062 18.414062 -28.867188 17.96875 -26.890625 C 17.519531 -24.910156 16.523438 -21.007812 14.984375 -15.1875 Z M 22.875 -15.1875 "/></g></g></g><g fill="#000000" fill-opacity="1"><g transform="translate(134.620593, 227.499976)"><g><path d="M 4.015625 0 L 4.015625 -37.125 L 14.09375 -37.125 L 14.09375 0 Z M 4.015625 0 "/></g></g></g></svg>